# xmcd
# Track frame offsets:
# 150
# 15045
# 36280
# 50071
# 58641
# 72057
# 89965
# 98907
#
# Disc length: 1429 seconds
# Revision: 0
# Processed by: cddbd v1.4PL0 Copyright (c) Steve Scherf et al.
# Submitted via: VisiTrax 2.9.5.180 - For more info visit www.synapsa.com
#
DISCID=66059308
DTITLE=Paul H Taylor - Raised on radio
DYEAR=1900
DGENRE=
TTITLE0=Raised on radio
TTITLE1=Day outside
TTITLE2=Somebody just like you
TTITLE3=Without words
TTITLE4=Media
TTITLE5=Remind me to forget
TTITLE6=Oh Susanna
TTITLE7=Without words (instrumental)
EXTD=
EXTT0=
EXTT1=
EXTT2=
EXTT3=
EXTT4=
EXTT5=
EXTT6=
EXTT7=
PLAYORDER=
